{"title":"Waking the Dead S04 RB58","uid":15724474,"size":4615019469,"categoryP":"video","categoryS":"tv_shows","magnet":"?xt=urn:btih:1ad068656c83529f36d2e901a61cbbbb2daeb301&amp;dn=Waking+the+Dead+S04+RB58&amp;tr=udp%3A%2F%2Ftracker.leechers-paradise.org%3A6969&amp;tr=udp%3A%2F%2Fzer0day.ch%3A1337&amp;tr=udp%3A%2F%2Fopen.demonii.com%3A1337&amp;tr=udp%3A%2F%2Ftracker.coppersurfer.tk%3A6969&amp;tr=udp%3A%2F%2Fexodus.desync.com%3A6969","seeders":6,"leechers":2,"uploader":"RedBaron58","files":12,"time":1472696955,"description":"Waking the Dead S04 DVDrip x264 mp4\r\n  \nhttp://www.imdb.com/title/tt0259733/\r\n\r\nSorry guys the folder name is slightly wrong.\r\nThank you for your kind comments and feedback on my other torrents, your feedback is welcome.\r\n\r\nAbout the Series:\r\nDetective Superintendent Peter Boyd is the leader of a police team which investigates \r\nunsolved murders using modern technology.\r\nStarring  Trevor Eve, Sue Johnston and Wil Johnson.  \r\n\r\nEpisode 1 &amp; 2 &quot;In Sight of the Lord&quot;\r\nBoyd and the team are tasked with investigating the unsolved murder of George Western, \r\na man found with a nine-inch nail in his skull in 1948.\r\n\r\nEpisode 3 &amp; 4 &quot;False Flag&quot;\r\nBoyd and his team face a race against time after a skeleton found in a condemned \r\ngarage triggers a tragic chain of events.\r\n\r\nEpisode 5 &amp; 6 &quot;Fugue States&quot;\r\nThe unsolved disappearance of five-year-old twins Jason and Cindy Murphy is \r\nre-opened when Jason is found after being admitted to hospital with injuries \r\nsustained after being hit by a car.\r\n\r\nEpisode 7 &amp; 8 &quot;Anger Management&quot;\r\nWhen the deputy manager of a probationary hostel apparently uses a gun to \r\ncommit suicide, the local police are convinced he killed himself.\r\n\r\nEpisode 9 &amp; 10 &quot;The Hardest Word&quot;\r\nThe team are asked to re-open the murder of local headmaster James Carstairs, \r\nwhen a second victim, Tomas Barac, is found in similar circumstances.\r\n\r\nEpisode 11 &amp; 12 &quot;Shadowplay&quot;\r\nBoyd and the team are tasked with investigating the case of a young woman, \r\nwith a history of psychiatric problems, who murders her family by setting \r\nthe family home on fire.\r\n\r\nTechnical: (All episodes are encoded to the same settings)\r\n\r\nGeneral\r\nComplete name                            : I:Wake the Dead S04Waking The Dead S04E01 - In Sight of the Lord pt1 x264 RB58.mp4\r\nFormat                                   : MPEG-4\r\nFormat profile                           : Base Media / Version 2\r\nCodec ID                                 : mp42\r\nFile size                                : 369 MiB\r\nDuration                                 : 51mn 32s\r\nOverall bit rate mode                    : Variable\r\nOverall bit rate                         : 1 000 Kbps\r\nEncoded date                             : UTC 2016-08-26 16:46:26\r\nTagged date                              : UTC 2016-08-26 16:48:07\r\nWriting application                      : HandBrake 0.9.8 2012071700\r\n\r\nVideo\r\nID                                       : 1\r\nFormat                                   : AVC\r\nFormat/Info                              : Advanced Video Codec\r\nFormat profile                           :   \r\nFormat settings, CABAC                   : Yes\r\nFormat settings, ReFrames                : 4 frames\r\nCodec ID                                 : avc1\r\nCodec ID/Info                            : Advanced Video Coding\r\nDuration                                 : 51mn 32s\r\nBit rate                                 : 900 Kbps\r\nWidth                                    : 716 pixels\r\nHeight                                   : 576 pixels\r\nDisplay aspect ratio                     : 16:9\r\nFrame rate mode                          : Constant\r\nFrame rate                               : 25.000 fps\r\nColor space                              : YUV\r\nChroma subsampling                       : 4:2:0\r\nBit depth                                : 8 bits\r\nScan type                                : Progressive\r\nBits/(Pixel*Frame)                       : 0.087\r\nStream size                              : 332 MiB (90%)\r\nWriting library                          : x264 core 120\r\nEncoding settings                        : cabac=1 / ref=1 / deblock=1:0:0\r\nEncoded date                             : UTC 2016-08-26 16:46:26\r\nTagged date                              : UTC 2016-08-26 16:48:07\r\nColor range                              : Limited\r\nColor primaries                          : BT.601 NTSC\r\nTransfer characteristics                 : BT.709\r\nMatrix coefficients                      : BT.601\r\n\r\nAudio\r\nID                                       : 2\r\nFormat                                   : AAC\r\nFormat/Info                              : Advanced Audio Codec\r\nFormat profile                           : LC\r\nCodec ID                                 : 40\r\nDuration                                 : 51mn 32s\r\nBit rate mode                            : Variable\r\nBit rate                                 : 96.0 Kbps\r\nMaximum bit rate                         : 119 Kbps\r\nChannel(s)                               : 2 channels\r\nChannel positions                        : Front: L R\r\nSampling rate                            : 48.0 KHz\r\nCompression mode                         : Lossy\r\nStream size                              : 35.4 MiB (10%)\r\nTitle                                    : Stereo\r\nLanguage                                 : English","torrent":{"xt":"urn:btih:1ad068656c83529f36d2e901a61cbbbb2daeb301","amp;dn":"Waking+the+Dead+S04+RB58","amp;tr":["udp%3A%2F%2Ftracker.leechers-paradise.org%3A6969","udp%3A%2F%2Fzer0day.ch%3A1337","udp%3A%2F%2Fopen.demonii.com%3A1337","udp%3A%2F%2Ftracker.coppersurfer.tk%3A6969","udp%3A%2F%2Fexodus.desync.com%3A6969"],"infoHash":"1ad068656c83529f36d2e901a61cbbbb2daeb301","infoHashBuffer":{"type":"Buffer","data":[26,208,104,101,108,131,82,159,54,210,233,1,166,28,187,187,45,174,179,1]},"announce":[],"urlList":[]}}